<svg width="20" height="22" viewBox="0 0 20 22" fill="none" xmlns="http://www.w3.org/2000/svg">
<path d="M14.2426 11.2426C15.3284 10.1568 16 8.65685 16 7C16 3.68629 13.3137 1 10 1C6.6863 1 4 3.68629 4 7C4 8.65685 4.67155 10.1568 5.75735 11.2426" stroke="#A8ABBD" stroke-width="2" stroke-linecap="round"/>
<path d="M1 21L1.5 18.5L7 14.5L10 17.5L13 14.5L18.5 18.5L19 21" stroke="#A8ABBD" stroke-width="2" stroke-linecap="round" stroke-linejoin="round"/>
<path d="M4.4967 9.50428C4.50305 7.44898 4.83745 5.94778 5.5 5.00068C6.49385 3.58009 7.1935 3.68451 7.7027 3.90578C8.2119 4.12703 8.5113 5.57283 9.36181 5.98958C10.2123 6.40633 12.3889 6.45778 13.1344 6.95908C13.8799 7.46043 15.5848 8.39293 15.1598 9.98493" stroke="#AEAEAE" stroke-width="2"/>
</svg>
